<svg width="128" height="48" viewBox="0 0 128 48" fill="none" xmlns="http://www.w3.org/2000/svg">
<path fill-rule="evenodd" clip-rule="evenodd" d="M104.107 20.5972C104.596 21.2429 104.756 21.9774 104.809 22.8032L104.878 23.9039V31.6007L104.949 32.7025C105.091 34.502 106.824 35.8325 109.193 35.9457L110.624 36V23.9039L110.695 22.8032C110.754 21.9867 110.912 21.2382 111.409 20.588C111.915 19.921 112.641 19.3677 113.514 18.9835C114.387 18.5993 115.377 18.3978 116.385 18.3992C117.392 18.4006 118.381 18.6049 119.253 18.9915C120.124 19.3781 120.848 19.9335 121.35 20.6018C121.839 21.2475 121.991 21.9959 122.05 22.8032L122.121 23.9005V31.6007L122.192 32.7025C122.34 34.5112 124.059 35.8418 126.435 35.9457L127.867 36V22.8032C127.867 20.4697 126.657 18.2317 124.502 16.5813C122.347 14.9309 119.424 14.0032 116.376 14.0023C114.745 14.001 113.132 14.2662 111.645 14.7803C110.159 15.2944 108.832 16.0454 107.755 16.9833C106.677 16.0458 105.351 15.2949 103.864 14.7807C102.378 14.2665 100.765 14.0007 99.1338 14.0012C96.7473 14.0012 94.5327 14.5555 92.6983 15.513C91.579 14.5567 89.0748 14.0012 87.6372 14.0012V36L89.0748 35.9457C91.4794 35.8244 93.2173 34.5297 93.3108 32.7025L93.3877 31.6007V23.9039L93.4586 22.8032C93.519 21.9728 93.6698 21.2429 94.1601 20.5926C94.6663 19.9261 95.392 19.3728 96.2647 18.9882C97.1375 18.6035 98.1267 18.4009 99.1338 18.4005C100.142 18.4006 101.132 18.6037 102.005 18.9893C102.878 19.3748 103.603 19.9294 104.107 20.5972V20.5972ZM5.74603 35.9469L7.18367 36H28.7332L28.6623 34.9028C28.4677 33.0941 26.7947 31.7728 24.4248 31.655L22.9872 31.6007H10.059L27.2955 18.3993L27.2246 17.3032C27.113 15.4761 25.3691 14.1559 22.9872 14.0554L21.5495 14.0058L0 14.0012L0.0709014 15.1019C0.259469 16.8932 1.95658 18.2422 4.30688 18.3462L5.74603 18.4005H18.6742L1.43764 31.6018L1.50854 32.7025C1.65034 34.5159 3.35952 35.8291 5.74603 35.9457V35.9469ZM81.9968 17.2212C83.3311 18.2426 84.3895 19.4552 85.1117 20.7898C85.8338 22.1244 86.2055 23.5548 86.2055 24.9994C86.2055 26.444 85.8338 27.8744 85.1117 29.209C84.3895 30.5436 83.3311 31.7562 81.9968 32.7776C79.301 34.8399 75.6461 35.9983 71.8352 35.9983C68.0244 35.9983 64.3695 34.8399 61.6737 32.7776C56.0634 28.4823 56.0634 21.5166 61.6737 17.2212C63.0068 16.2002 64.5895 15.3902 66.3315 14.8375C68.0734 14.2848 69.9405 14.0002 71.8262 14C73.7149 13.999 75.5853 14.2831 77.3305 14.836C79.0756 15.3889 80.6613 16.1999 81.9968 17.2224V17.2212ZM77.9312 20.3362C79.5472 21.5744 80.4549 23.2531 80.4549 25.0035C80.4549 26.7538 79.5472 28.4326 77.9312 29.6707C76.3141 30.908 74.1214 31.6029 71.8352 31.6029C69.549 31.6029 67.3564 30.908 65.7392 29.6707C64.1232 28.4326 63.2155 26.7538 63.2155 25.0035C63.2155 23.2531 64.1232 21.5744 65.7392 20.3362C67.3564 19.099 69.549 18.404 71.8352 18.404C74.1214 18.404 76.3141 19.099 77.9312 20.3362V20.3362ZM41.6735 14C43.5592 14.0004 45.4263 14.2851 47.1683 14.8381C48.9103 15.391 50.493 16.2012 51.8259 17.2224C57.4377 21.5166 57.4377 28.4834 51.8259 32.7776C49.1302 34.8399 45.4752 35.9983 41.6644 35.9983C37.8536 35.9983 34.1986 34.8399 31.5029 32.7776C25.8926 28.4823 25.8926 21.5166 31.5029 17.2212C32.836 16.2002 34.4187 15.3902 36.1606 14.8375C37.9026 14.2848 39.7697 14.0002 41.6553 14H41.6735ZM47.7604 20.3339C49.3768 21.5721 50.2849 23.2511 50.2849 25.0017C50.2849 26.7524 49.3768 28.4314 47.7604 29.6696C46.1432 30.9068 43.9506 31.6018 41.6644 31.6018C39.3782 31.6018 37.1856 30.9068 35.5684 29.6696C33.9524 28.4314 33.0447 26.7527 33.0447 25.0023C33.0447 23.252 33.9524 21.5732 35.5684 20.335C37.1856 19.0978 39.3782 18.4028 41.6644 18.4028C43.9506 18.4028 46.1432 19.0978 47.7604 20.335V20.3339Z" fill="#2D8CFF"/>
</svg>
